<svg xmlns="http://www.w3.org/2000/svg" viewBox="0 0 624.46 80.68">
    <defs>
        <style>
            .cls-1, .cls-3 {
                fill: #fefefe;
            }
            .cls-1, .cls-2 {
                fill-rule: evenodd;
            }
            .cls-2 {
                fill: #c1d116;
            }
            .cls-3 {
                font-size: 68.95px;
                font-family: ProximaNovaSoft-Regular, Proxima Nova Soft;
            }
            .cls-4 {
                letter-spacing: -0.04em;
            }
            .cls-5 {
                letter-spacing: -0.08em;
            }
        </style>
    </defs>
    <title>Ebene 1</title>
    <g id="Ebene_2" data-name="Ebene 2">
        <g id="Ebene_1-2" data-name="Ebene 1">
            <polygon class="cls-1" points="47.68 26.39 47.68 52.03 27.76 38.26 47.68 26.39"/>
            <path class="cls-2" d="M63.7,74.83V5.9a9.88,9.88,0,0,0-.13-1.44A5.59,5.59,0,0,0,60.14.27a4.48,4.48,0,0,0-3.87.39L3.13,32.36A5.71,5.71,0,0,0,.65,34.75c-1.36,2.57-.48,6.46,1.72,8L26.28,59.27l5.28-10L15.35,38.12l38.2-22.78V64.53L37.34,53.32,22.74,80.68l14.33-14L55.62,79.55a5.71,5.71,0,0,0,3,1.07C61.4,80.62,63.7,78,63.7,74.83Z"/>
            <text class="cls-3" transform="translate(77.73 61.74) scale(0.88 1)">
                <tspan class="cls-4">A</tspan>
                <tspan x="42.82" y="0">CO</tspan>
                <tspan class="cls-5" x="142.18" y="0">P</tspan>
                <tspan x="177.34" y="0">A</tspan>
                <tspan x="245.34" y="-4">|</tspan>
                <tspan x="282.82" y="0">S</tspan>
                <tspan x="328.14" y="0">k</tspan>
                <tspan x="368.3" y="0">i</tspan>
                <tspan x="395.46" y="0">l</tspan>
                <tspan x="420.62" y="0">l</tspan>
                <tspan x="450.78" y="0">-</tspan>
                <tspan x="480.94" y="0">D</tspan>
                <tspan x="535" y="0">B</tspan>
            </text>
        </g>
    </g>
</svg>