<?xml version="1.0" encoding="UTF-8" standalone="no"?>
<svg
   xmlns:dc="http://purl.org/dc/elements/1.1/"
   xmlns:cc="http://creativecommons.org/ns#"
   xmlns:rdf="http://www.w3.org/1999/02/22-rdf-syntax-ns#"
   xmlns:svg="http://www.w3.org/2000/svg"
   xmlns="http://www.w3.org/2000/svg"
   xmlns:sodipodi="http://sodipodi.sourceforge.net/DTD/sodipodi-0.dtd"
   xmlns:inkscape="http://www.inkscape.org/namespaces/inkscape"
   id="Ebene_1"
   data-name="Ebene 1"
   viewBox="0 0 233.21 60.85"
   version="1.1"
   sodipodi:docname="ACOPA_Logo_grau.svg"
   inkscape:version="0.92.3 (2405546, 2018-03-11)">
  <metadata
     id="metadata31">
    <rdf:RDF>
      <cc:Work
         rdf:about="">
        <dc:format>image/svg+xml</dc:format>
        <dc:type
           rdf:resource="http://purl.org/dc/dcmitype/StillImage" />
        <dc:title>ACOPA Logo grau</dc:title>
      </cc:Work>
    </rdf:RDF>
  </metadata>
  <sodipodi:namedview
     pagecolor="#ffffff"
     bordercolor="#666666"
     borderopacity="1"
     objecttolerance="10"
     gridtolerance="10"
     guidetolerance="10"
     inkscape:pageopacity="0"
     inkscape:pageshadow="2"
     inkscape:window-width="1920"
     inkscape:window-height="1017"
     id="namedview29"
     showgrid="false"
     inkscape:zoom="6.8888408"
     inkscape:cx="62.341757"
     inkscape:cy="40.012967"
     inkscape:window-x="1912"
     inkscape:window-y="-8"
     inkscape:window-maximized="1"
     inkscape:current-layer="Ebene_1" />
  <defs
     id="defs10">
    <style
       id="style2">.cls-1{fill:none;}.cls-2{clip-path:url(#clip-path);}.cls-3{fill:#878787;}.cls-4{fill:#56585a;}.cls-4,.cls-6{fill-rule:evenodd;}.cls-5{clip-path:url(#clip-path-2);}.cls-6{fill:#999696;}.cls-7{fill:#575756;}</style>
    <clipPath
       id="clip-path"
       transform="translate(-0.61 -0.13)">
      <rect
         class="cls-1"
         width="235.28"
         height="62.36"
         id="rect4" />
    </clipPath>
    <clipPath
       id="clip-path-2"
       transform="translate(-0.61 -0.13)">
      <rect
         class="cls-1"
         width="55.45"
         height="60.98"
         id="rect7" />
    </clipPath>
  </defs>
  <title
     id="title12">ACOPA Logo grau</title>
  <polygon
     class="cls-4"
     points="41.04 19.9 41.04 39.24 23.9 28.86 41.04 19.9"
     id="polygon18" />
  <g
     class="cls-5"
     clip-path="url(#clip-path-2)"
     id="g22">
    <path
       class="cls-6"
       d="M55.45,56.57v-52a6.49,6.49,0,0,0-.12-1.08A4.36,4.36,0,0,0,49.05.63L3.3,24.54a4.65,4.65,0,0,0-2.12,1.8,4.63,4.63,0,0,0,1.47,6L23.24,44.83l4.54-7.5L13.83,28.88,46.71,11.7V48.8l-14-8.46L20.19,61,32.53,50.45l16,9.68a5.35,5.35,0,0,0,2.57.8,4.4,4.4,0,0,0,4.39-4.36"
       transform="translate(-0.61 -0.13)"
       id="path20" />
  </g>
</svg>
